<svg width="187" height="90" viewBox="0 0 187 90" fill="none" xmlns="http://www.w3.org/2000/svg">
<rect width="187" height="90" fill="#E2E2E4"/>
<rect width="187" height="90" stroke="white"/>
<path d="M36.4575 29.2563L30.1436 32.8977L36.4575 36.5391L30.1436 40.1236L36.4575 43.765L30.1436 47.3495L36.4575 50.9908L44.6655 46.3253L49.1427 50.9908V43.7934L55.4566 40.152L36.4575 29.2563ZM47.9947 47.9753L37.6054 37.165L47.9947 43.0822V47.9753Z" fill="black"/>
<path d="M157.857 45.5002H155.618V41.8588H153.609V45.5002H151.313V47.4347H153.609V56.8795H155.618V47.4062H157.857V45.5002ZM146.377 45.2157C145.711 45.1795 145.047 45.3182 144.452 45.6179C143.857 45.9176 143.353 46.3677 142.99 46.9226V45.5002H140.981V56.8795H142.99V50.3648C142.954 49.9114 143.011 49.4554 143.159 49.0249C143.308 48.5943 143.543 48.1984 143.851 47.8614C144.396 47.3552 145.113 47.0708 145.86 47.0648C146.175 47.0489 146.49 47.0962 146.785 47.2037C147.081 47.3113 147.352 47.4769 147.582 47.6907C147.81 47.9336 147.984 48.2211 148.092 48.5347C148.201 48.8483 148.242 49.181 148.213 49.5114V56.7942H150.222V49.3976C150.235 48.6091 150.058 47.8289 149.706 47.1217C149.388 46.5153 148.913 46.0045 148.328 45.6424C147.724 45.3389 147.054 45.1829 146.377 45.1873V45.2157ZM129.874 50.3648C129.983 49.4411 130.433 48.5899 131.137 47.9752C131.86 47.3749 132.777 47.0518 133.72 47.0648C134.601 47.0516 135.458 47.3547 136.131 47.9183C136.487 48.2251 136.777 48.5999 136.984 49.0202C137.192 49.4405 137.311 49.8978 137.336 50.3648H129.874ZM139.345 52.0717C139.393 51.7707 139.412 51.466 139.403 51.1614C139.407 50.1174 139.171 49.0862 138.714 48.1459C138.274 47.2471 137.601 46.481 136.762 45.9269C135.873 45.3657 134.831 45.0877 133.778 45.1304C132.692 45.1236 131.624 45.3982 130.678 45.9269C129.78 46.4371 129.045 47.186 128.554 48.089C128.039 49.031 127.782 50.0903 127.808 51.1614C127.782 52.2325 128.039 53.2918 128.554 54.2338C129.045 55.1368 129.78 55.8857 130.678 56.3959C131.624 56.9246 132.692 57.1992 133.778 57.1924C134.959 57.2038 136.118 56.8672 137.107 56.2252C138.001 55.6222 138.667 54.7414 139.001 53.7217H136.935C136.689 54.2496 136.262 54.6732 135.729 54.9166C135.01 55.2736 134.206 55.4255 133.405 55.3552C132.604 55.2848 131.839 54.9951 131.195 54.5183C130.461 53.8954 129.99 53.0223 129.874 52.0717H139.345ZM119.973 55.1726C119.252 55.1787 118.54 55.0024 117.907 54.6605C117.288 54.3038 116.774 53.7941 116.414 53.1812C116.075 52.5508 115.898 51.8474 115.898 51.1329C115.898 50.4185 116.075 49.7151 116.414 49.0847C116.774 48.4718 117.288 47.9621 117.907 47.6054C118.543 47.2692 119.252 47.0933 119.973 47.0933C120.694 47.0933 121.404 47.2692 122.039 47.6054C122.658 47.9621 123.172 48.4718 123.532 49.0847C123.871 49.7151 124.048 50.4185 124.048 51.1329C124.048 51.8474 123.871 52.5508 123.532 53.1812C123.172 53.7941 122.658 54.3038 122.039 54.6605C121.406 55.0024 120.695 55.1787 119.973 55.1726ZM124.048 45.5002V47.4916C123.582 46.8009 122.951 46.2343 122.212 45.8416C121.435 45.4287 120.567 45.2136 119.686 45.2157C118.657 45.2241 117.648 45.4987 116.759 46.0123C115.861 46.5224 115.126 47.2713 114.635 48.1743C114.109 49.0733 113.832 50.0938 113.831 51.1329C113.832 52.19 114.109 53.2289 114.635 54.1485C115.142 55.0396 115.874 55.7847 116.759 56.3105C117.642 56.8383 118.655 57.114 119.686 57.1071C120.546 57.113 121.394 56.9084 122.155 56.5114C122.916 56.1143 123.567 55.5372 124.048 54.8312V56.4243C124.069 56.8943 123.993 57.3636 123.825 57.8037C123.658 58.2438 123.402 58.6456 123.073 58.9847C122.289 59.6369 121.281 59.9631 120.26 59.895C119.605 59.9243 118.953 59.7872 118.366 59.4967C117.867 59.2884 117.432 58.9551 117.103 58.5295C116.843 58.1844 116.702 57.7654 116.701 57.3347H114.692C114.696 58.1611 114.979 58.9624 115.496 59.6105C116.027 60.3038 116.742 60.836 117.562 61.1467C118.408 61.5312 119.33 61.7254 120.26 61.7157C121.251 61.7176 122.231 61.504 123.13 61.0898C123.997 60.6936 124.733 60.0624 125.254 59.2692C125.801 58.4001 126.08 57.3916 126.057 56.3674V45.5002H124.048ZM110.043 56.8795H112.081V45.5002H110.072L110.043 56.8795ZM110.043 43.4519H112.081V40.9485H110.072L110.043 43.4519ZM105.566 56.8795H107.575V40.4648H105.566V56.8795ZM101.089 56.8795H103.098V40.4648H101.089V56.8795ZM89.9534 50.3933C90.0622 49.4695 90.512 48.6183 91.2162 48.0036C91.9393 47.4033 92.8559 47.0803 93.7991 47.0933C94.6803 47.08 95.5365 47.3831 96.2099 47.9467C96.566 48.2536 96.8563 48.6283 97.0634 49.0486C97.2704 49.4689 97.3901 49.9262 97.4153 50.3933H89.9534ZM99.4242 52.1002C99.4719 51.7992 99.4911 51.4944 99.4816 51.1898C99.4859 50.1459 99.2503 49.1147 98.7928 48.1743C98.3534 47.2755 97.6796 46.5094 96.8413 45.9554C95.9517 45.3941 94.9101 45.1161 93.8565 45.1588C92.771 45.152 91.7024 45.4266 90.757 45.9554C89.8594 46.4655 89.1237 47.2144 88.6332 48.1174C88.1182 49.0595 87.861 50.1187 87.887 51.1898C87.861 52.261 88.1182 53.3202 88.6332 54.2623C89.1237 55.1652 89.8594 55.9142 90.757 56.4243C91.7024 56.9531 92.771 57.2277 93.8565 57.2209C95.0384 57.2323 96.197 56.8956 97.1857 56.2536C98.0798 55.6506 98.7462 54.7699 99.0798 53.7502H97.0135C96.768 54.278 96.3406 54.7017 95.8081 54.945C95.0894 55.3021 94.2846 55.4539 93.4838 55.3836C92.683 55.3133 91.9177 55.0235 91.2736 54.5467C90.9005 54.2464 90.5917 53.8753 90.365 53.4552C90.1383 53.0351 89.9984 52.5745 89.9534 52.1002H99.4242ZM87.6 45.5002H85.3614V41.8588H83.3812V45.5002H81.0852V47.4347H83.3812V56.8795H85.3901V47.4062H87.6287L87.6 45.5002ZM73.6233 55.2579C72.9018 55.264 72.1907 55.0878 71.557 54.7459C70.9387 54.3891 70.4245 53.8794 70.0646 53.2666C69.7254 52.6362 69.548 51.9327 69.548 51.2183C69.548 50.5039 69.7254 49.8004 70.0646 49.17C70.4083 48.545 70.9264 48.0314 71.557 47.6907C72.1929 47.3545 72.9026 47.1786 73.6233 47.1786C74.3441 47.1786 75.0537 47.3545 75.6897 47.6907C76.3079 48.0475 76.8222 48.5572 77.1821 49.17C77.5212 49.8004 77.6987 50.5039 77.6987 51.2183C77.6987 51.9327 77.5212 52.6362 77.1821 53.2666C76.8384 53.8916 76.3202 54.4052 75.6897 54.7459C75.0613 55.1012 74.3465 55.2784 73.6233 55.2579ZM77.7274 40.9485V47.4347C77.2537 46.7246 76.6035 46.1473 75.8395 45.7587C75.0754 45.37 74.2232 45.183 73.365 45.2157C72.353 45.2166 71.3605 45.4921 70.4951 46.0123C69.6102 46.5385 68.8784 47.2835 68.3713 48.1743C67.8445 49.0936 67.5675 50.1326 67.5675 51.1898C67.5675 52.247 67.8445 53.2861 68.3713 54.2054C68.8784 55.0962 69.6102 55.8412 70.4951 56.3674C71.3605 56.8876 72.353 57.1631 73.365 57.164C74.2421 57.1918 75.1118 56.9958 75.8906 56.595C76.6184 56.1865 77.2458 55.6229 77.7274 54.945V56.8795H79.7363V40.9485H77.7274ZM59.6466 55.2864C58.9252 55.2924 58.214 55.1162 57.5803 54.7743C56.962 54.4176 56.4478 53.9078 56.0879 53.295C55.7487 52.6646 55.5713 51.9612 55.5713 51.2467C55.5713 50.5323 55.7487 49.8289 56.0879 49.1985C56.4316 48.5735 56.9498 48.0599 57.5803 47.7192C58.2162 47.3829 58.9259 47.2071 59.6466 47.2071C60.3674 47.2071 61.0771 47.3829 61.713 47.7192C62.3313 48.0759 62.8455 48.5856 63.2054 49.1985C63.5446 49.8289 63.722 50.5323 63.722 51.2467C63.722 51.9612 63.5446 52.6646 63.2054 53.295C62.8617 53.92 62.3435 54.4336 61.713 54.7743C61.0847 55.1297 60.3698 55.3068 59.6466 55.2864ZM63.722 45.5002V47.4347C63.2484 46.7246 62.5982 46.1473 61.8341 45.7587C61.07 45.37 60.2178 45.183 59.3597 45.2157C58.3283 45.2189 57.3165 45.4948 56.4286 46.0149C55.5407 46.5349 54.8089 47.2804 54.3085 48.1743C53.7817 49.0936 53.5048 50.1326 53.5048 51.1898C53.5048 52.247 53.7817 53.2861 54.3085 54.2054C54.8089 55.0993 55.5407 55.8447 56.4286 56.3648C57.3165 56.8849 58.3283 57.1608 59.3597 57.164C60.2368 57.1918 61.1064 56.9958 61.8852 56.595C62.6131 56.1865 63.2404 55.6229 63.722 54.945V56.8795H65.731V45.5002H63.722Z" fill="black"/>
</svg>
