<svg width="188" height="90" viewBox="0 0 188 90" fill="none" xmlns="http://www.w3.org/2000/svg">
<rect width="188" height="90" fill="#282240"/>
<rect width="188" height="90" stroke="white"/>
<path d="M29.6674 57.6667L32.1065 54.3906L29.816 51.8893H30.5153L33.8079 55.5693V51.8893H34.3585V55.5693L37.6511 51.8893H38.3504L36.0489 54.3906L38.499 57.6667H37.8218L35.702 54.7891L34.3585 56.25V57.6667H33.8079V56.25L32.4644 54.778L30.3446 57.6667H29.6674ZM39.837 57.6667V51.8893H40.3931V56.9307L44.2914 51.8893H44.8475V57.6667H44.2914V52.6253L40.3931 57.6667H39.837ZM45.9377 57.6667L46.0423 57.1575C46.2222 57.2092 46.3672 57.235 46.4773 57.235C46.6021 57.235 46.7067 57.2258 46.7912 57.2073C46.8792 57.1852 46.9728 57.1354 47.0719 57.0579C47.1711 56.9805 47.2537 56.8717 47.3198 56.7315C47.3858 56.5913 47.45 56.3976 47.5125 56.1504C47.5785 55.9032 47.6299 55.6044 47.6666 55.2539C47.707 54.8997 47.74 54.4663 47.7657 53.9535C47.7914 53.4407 47.8061 52.8541 47.8097 52.1937V51.8893H51.7246V57.6667H51.1685V52.3874H48.3383V52.5423C48.3383 53.2175 48.3218 53.817 48.2888 54.3408C48.2594 54.861 48.2191 55.3037 48.1677 55.6689C48.12 56.0342 48.0539 56.3459 47.9695 56.6041C47.885 56.8587 47.7987 57.0616 47.7106 57.2129C47.6226 57.3605 47.5125 57.4767 47.3803 57.5615C47.2482 57.6427 47.1215 57.6943 47.0004 57.7165C46.8829 57.7423 46.7398 57.7552 46.5709 57.7552C46.3617 57.7552 46.1506 57.7257 45.9377 57.6667ZM53.4314 54.778C53.4314 54.3759 53.5067 53.9903 53.6572 53.6214C53.8077 53.2525 54.0114 52.9315 54.2684 52.6585C54.5253 52.3818 54.8392 52.1623 55.2099 52C55.5806 51.834 55.9752 51.751 56.3937 51.751C56.948 51.751 57.4509 51.8893 57.9024 52.166C58.3575 52.439 58.7099 52.8079 58.9595 53.2728C59.2128 53.7339 59.3395 54.2357 59.3395 54.778C59.3395 55.3166 59.2128 55.8165 58.9595 56.2777C58.7063 56.7388 58.3502 57.1096 57.8914 57.39C57.4362 57.6667 56.9296 57.805 56.3717 57.805C55.9569 57.805 55.566 57.7239 55.1989 57.5615C54.8318 57.3992 54.5198 57.1815 54.2629 56.9085C54.0059 56.6355 53.8022 56.3145 53.6517 55.9457C53.5049 55.573 53.4314 55.1838 53.4314 54.778ZM54.0261 54.778C54.0261 55.4753 54.2537 56.0674 54.7088 56.5543C55.1677 57.0377 55.7293 57.2793 56.3937 57.2793C56.8121 57.2793 57.2013 57.1686 57.561 56.9473C57.9207 56.7222 58.207 56.4179 58.42 56.0342C58.6328 55.6505 58.7393 55.2318 58.7393 54.778C58.7393 54.0844 58.5081 53.4941 58.0455 53.0072C57.583 52.5165 57.0251 52.2712 56.3717 52.2712C55.9459 52.2712 55.5531 52.3837 55.1934 52.6087C54.8337 52.8301 54.5492 53.1344 54.34 53.5218C54.1307 53.9055 54.0261 54.3242 54.0261 54.778ZM61.0353 57.6667V51.8893H61.5914V56.9307L65.4897 51.8893H66.0458V57.6667H65.4897V52.6253L61.5914 57.6667H61.0353ZM62.0209 49.6426L62.4834 49.543C62.6302 50.0927 62.9826 50.3675 63.5406 50.3675C64.1022 50.3675 64.4564 50.0927 64.6032 49.543L65.0657 49.6426C64.996 50.0189 64.8216 50.3306 64.5426 50.5778C64.2636 50.825 63.9297 50.9486 63.5406 50.9486C63.1515 50.9486 62.8174 50.825 62.5384 50.5778C62.2632 50.3306 62.0906 50.0189 62.0209 49.6426ZM71.5188 57.6667V51.8893H72.0749V55.5915L75.6373 51.8893H76.3696L73.8534 54.4459L76.4467 57.6667H75.7475L73.4735 54.8444L72.0749 56.2611V57.6667H71.5188ZM77.3937 54.778C77.3937 54.3759 77.469 53.9903 77.6195 53.6214C77.77 53.2525 77.9737 52.9315 78.2307 52.6585C78.4876 52.3818 78.8015 52.1623 79.1722 52C79.5429 51.834 79.9376 51.751 80.356 51.751C80.9103 51.751 81.4132 51.8893 81.8647 52.166C82.3199 52.439 82.6722 52.8079 82.9218 53.2728C83.1751 53.7339 83.3018 54.2357 83.3018 54.778C83.3018 55.3166 83.1751 55.8165 82.9218 56.2777C82.6686 56.7388 82.3125 57.1096 81.8537 57.39C81.3985 57.6667 80.8919 57.805 80.334 57.805C79.9192 57.805 79.5283 57.7239 79.1612 57.5615C78.7941 57.3992 78.4821 57.1815 78.2252 56.9085C77.9682 56.6355 77.7645 56.3145 77.614 55.9457C77.4672 55.573 77.3937 55.1838 77.3937 54.778ZM77.9884 54.778C77.9884 55.4753 78.216 56.0674 78.6712 56.5543C79.13 57.0377 79.6916 57.2793 80.356 57.2793C80.7745 57.2793 81.1636 57.1686 81.5233 56.9473C81.883 56.7222 82.1693 56.4179 82.3823 56.0342C82.5951 55.6505 82.7016 55.2318 82.7016 54.778C82.7016 54.0844 82.4704 53.4941 82.0078 53.0072C81.5453 52.5165 80.9874 52.2712 80.334 52.2712C79.9082 52.2712 79.5154 52.3837 79.1557 52.6087C78.796 52.8301 78.5115 53.1344 78.3023 53.5218C78.093 53.9055 77.9884 54.3242 77.9884 54.778ZM84.9976 57.6667V51.8893H85.4987L87.8442 55.2097L90.1898 51.8893H90.6853V57.6667H90.1293V52.8522L87.8167 56.0453L85.5317 52.8522V57.6667H84.9976ZM92.7831 57.6667V51.8893H97.568V57.6667H97.0121V52.3874H93.3393V57.6667H92.7831ZM98.6638 57.6667L98.7679 57.1575C98.9483 57.2092 99.0929 57.235 99.2031 57.235C99.3278 57.235 99.4326 57.2258 99.5168 57.2073C99.605 57.1852 99.6986 57.1354 99.798 57.0579C99.8969 56.9805 99.9798 56.8717 100.045 56.7315C100.112 56.5913 100.176 56.3976 100.238 56.1504C100.304 55.9032 100.356 55.6044 100.392 55.2539C100.433 54.8997 100.466 54.4663 100.492 53.9535C100.517 53.4407 100.532 52.8541 100.536 52.1937V51.8893H104.451V57.6667H103.895V52.3874H101.064V52.5423C101.064 53.2175 101.048 53.817 101.015 54.3408C100.985 54.861 100.945 55.3037 100.894 55.6689C100.846 56.0342 100.78 56.3459 100.696 56.6041C100.611 56.8587 100.524 57.0616 100.437 57.2129C100.349 57.3605 100.238 57.4767 100.106 57.5615C99.9738 57.6427 99.8471 57.6943 99.7264 57.7165C99.609 57.7423 99.4657 57.7552 99.2966 57.7552C99.0876 57.7552 98.8767 57.7257 98.6638 57.6667ZM106.157 54.7669C106.157 54.3537 106.227 53.9627 106.367 53.5938C106.506 53.2211 106.695 52.9002 106.934 52.6309C107.172 52.3615 107.461 52.1476 107.798 51.9889C108.139 51.8303 108.501 51.751 108.883 51.751C109.408 51.751 109.872 51.8856 110.276 52.1549C110.683 52.4206 110.994 52.7821 111.206 53.2396C111.419 53.6971 111.525 54.2099 111.525 54.778C111.525 54.8702 111.522 54.9459 111.515 55.0049H106.741C106.789 55.6985 107.029 56.2519 107.462 56.6651C107.899 57.0745 108.411 57.2793 108.998 57.2793C109.754 57.2793 110.412 56.9786 110.97 56.3773L111.355 56.7149C111.032 57.0653 110.683 57.3347 110.309 57.5228C109.938 57.7109 109.494 57.805 108.976 57.805C108.602 57.805 108.242 57.7312 107.897 57.5837C107.556 57.4361 107.257 57.2332 107 56.9749C106.743 56.713 106.537 56.3921 106.383 56.0121C106.233 55.6283 106.157 55.2133 106.157 54.7669ZM106.741 54.5069H110.926C110.907 54.208 110.85 53.9276 110.755 53.6657C110.659 53.4001 110.529 53.1621 110.364 52.9518C110.199 52.7379 109.986 52.57 109.725 52.4482C109.469 52.3228 109.18 52.2601 108.861 52.2601C108.296 52.2601 107.813 52.4741 107.413 52.902C107.016 53.33 106.792 53.8649 106.741 54.5069ZM113.133 57.6667V51.8893H113.69V55.5915L117.252 51.8893H117.984L115.468 54.4459L118.061 57.6667H117.362L115.088 54.8444L113.69 56.2611V57.6667H113.133ZM119.008 54.778C119.008 54.232 119.137 53.7284 119.394 53.2673C119.651 52.8024 120.003 52.4335 120.451 52.1605C120.903 51.8875 121.398 51.751 121.938 51.751C122.833 51.751 123.597 52.1107 124.228 52.8301L123.843 53.223C123.549 52.9205 123.254 52.6862 122.956 52.5202C122.663 52.3542 122.32 52.2712 121.927 52.2712C121.508 52.2712 121.121 52.3837 120.765 52.6087C120.409 52.8301 120.126 53.1344 119.917 53.5218C119.708 53.9055 119.603 54.3242 119.603 54.778C119.603 55.4753 119.832 56.0674 120.291 56.5543C120.75 57.0377 121.31 57.2793 121.971 57.2793C122.657 57.2793 123.294 56.9509 123.881 56.2943L124.283 56.6595C123.964 57.0247 123.617 57.3069 123.242 57.5062C122.872 57.7054 122.437 57.805 121.938 57.805C121.394 57.805 120.897 57.6703 120.446 57.4011C119.998 57.1281 119.645 56.7609 119.388 56.2998C119.135 55.8349 119.008 55.3277 119.008 54.778Z" fill="white"/>
<path d="M40.2701 45.4239C39.6864 45.8541 38.9762 46.1767 38.1395 46.3919C37.3223 46.6265 36.4759 46.7439 35.6004 46.7439C34.4329 46.7439 33.4406 46.5581 32.6234 46.1865C31.8256 45.815 31.1738 45.2967 30.6679 44.6319C30.162 43.9474 29.7923 43.1261 29.5588 42.1679C29.3448 41.2097 29.2378 40.1537 29.2378 38.9999C29.2378 36.5163 29.7923 34.6097 30.9014 33.2799C32.0105 31.9305 33.6254 31.2559 35.7463 31.2559C36.8164 31.2559 37.6726 31.3439 38.3146 31.5199C38.9762 31.6959 39.5696 31.9207 40.095 32.1945L39.1902 35.3039C38.7427 35.0887 38.2951 34.9225 37.8477 34.8052C37.4196 34.6879 36.9234 34.6292 36.3592 34.6292C35.3085 34.6292 34.5107 34.9812 33.9659 35.6852C33.4211 36.3697 33.1487 37.4745 33.1487 38.9999C33.1487 39.6257 33.2168 40.2025 33.353 40.7305C33.4892 41.2585 33.6935 41.7181 33.9659 42.1092C34.2383 42.5003 34.5885 42.8132 35.0166 43.0479C35.4641 43.263 35.9798 43.3705 36.5635 43.3705C37.2056 43.3705 37.7504 43.2923 38.1979 43.1359C38.6454 42.9599 39.0443 42.7545 39.3945 42.5199L40.2701 45.4239ZM51.3495 39.6452L51.4955 37.5625H51.4079L50.1529 39.7039L44.9578 46.3332H42.5646V31.6665H46.3587V38.6479L46.1836 40.6425H46.3004L47.497 38.5599L52.7505 31.6665H55.1437V46.3332H51.3495V39.6452ZM68.9756 35.0399H64.8604V46.3332H60.9495V35.0399H56.8342V31.6665H68.9756V35.0399ZM79.4524 39.6452L79.5983 37.5625H79.5108L78.2558 39.7039L73.0607 46.3332H70.6674V31.6665H74.4616V38.6479L74.2865 40.6425H74.4032L75.5999 38.5599L80.8533 31.6665H83.2466V46.3332H79.4524V39.6452ZM109.741 35.0399H105.13V46.3332H101.336V31.6665H113.535V46.3332H109.741V35.0399ZM116.782 32.5172C117.56 32.1652 118.484 31.8914 119.554 31.6959C120.624 31.4807 121.743 31.3732 122.911 31.3732C123.922 31.3732 124.769 31.5003 125.45 31.7545C126.13 31.9892 126.666 32.3314 127.055 32.7812C127.464 33.231 127.746 33.7687 127.901 34.3945C128.077 35.0203 128.164 35.7243 128.164 36.5065C128.164 37.367 128.135 38.2372 128.077 39.1172C128.018 39.9777 127.979 40.8283 127.96 41.6692C127.96 42.5101 127.989 43.3314 128.047 44.1332C128.106 44.9154 128.252 45.6585 128.485 46.3625H125.391L124.779 44.3385H124.633C124.243 44.9447 123.699 45.4727 122.998 45.9225C122.317 46.3527 121.431 46.5679 120.342 46.5679C119.661 46.5679 119.048 46.4701 118.504 46.2745C117.958 46.0594 117.491 45.7661 117.103 45.3945C116.713 45.0034 116.411 44.5537 116.198 44.0452C115.984 43.5172 115.877 42.9305 115.877 42.2852C115.877 41.3857 116.071 40.6327 116.461 40.0265C116.869 39.4007 117.443 38.9021 118.183 38.5305C118.941 38.1394 119.836 37.8754 120.868 37.7385C121.918 37.5821 123.086 37.5332 124.37 37.5919C124.506 36.4967 124.428 35.7145 124.136 35.2452C123.845 34.7563 123.193 34.5119 122.181 34.5119C121.422 34.5119 120.614 34.5901 119.759 34.7465C118.921 34.903 118.231 35.1083 117.686 35.3625L116.782 32.5172ZM121.597 43.4292C122.356 43.4292 122.959 43.263 123.407 42.9305C123.854 42.5785 124.185 42.207 124.399 41.8159V39.9092C123.796 39.8505 123.212 39.8407 122.648 39.8799C122.103 39.919 121.617 40.007 121.189 40.1439C120.76 40.2807 120.42 40.4763 120.167 40.7305C119.914 40.9847 119.788 41.3074 119.788 41.6985C119.788 42.2461 119.943 42.6763 120.255 42.9892C120.585 43.2825 121.033 43.4292 121.597 43.4292ZM131.348 31.6665H134.121L134.558 33.4265H134.675C135.181 32.6834 135.774 32.1359 136.456 31.7839C137.156 31.4319 138.002 31.2559 138.995 31.2559C140.824 31.2559 142.195 31.8425 143.11 33.0159C144.025 34.1697 144.482 36.0372 144.482 38.6185C144.482 39.8701 144.336 41.0043 144.044 42.0212C143.752 43.0185 143.314 43.8692 142.731 44.5732C142.166 45.2772 141.466 45.815 140.629 46.1865C139.812 46.5581 138.868 46.7439 137.798 46.7439C137.195 46.7439 136.699 46.695 136.31 46.5972C135.92 46.519 135.532 46.3821 135.142 46.1865V52.1999H131.348V31.6665ZM137.857 34.4825C137.117 34.4825 136.533 34.6683 136.105 35.0399C135.697 35.4114 135.376 35.9687 135.142 36.7119V42.8132C135.415 43.0283 135.707 43.2043 136.018 43.3412C136.349 43.4585 136.777 43.5172 137.302 43.5172C138.392 43.5172 139.209 43.1359 139.754 42.3732C140.298 41.591 140.571 40.3101 140.571 38.5305C140.571 37.2399 140.357 36.2425 139.929 35.5385C139.501 34.8345 138.81 34.4825 137.857 34.4825ZM151.925 40.2612H150.904V46.3332H147.11V31.6665H150.904V37.9145L151.809 37.5039L155.223 31.6665H159.28L155.749 37.2399L154.26 38.3545L155.895 39.4985L159.835 46.3332H155.486L151.925 40.2612Z" fill="white"/>
<path d="M92.3417 41.6668C93.8071 41.6668 94.995 40.4729 94.995 39.0002C94.995 37.5274 93.8071 36.3335 92.3417 36.3335C90.8764 36.3335 89.6885 37.5274 89.6885 39.0002C89.6885 40.4729 90.8764 41.6668 92.3417 41.6668Z" fill="#F1C650"/>
</svg>
