<svg width="187" height="90" viewBox="0 0 187 90" fill="none" xmlns="http://www.w3.org/2000/svg">
<rect width="187" height="90" fill="#C71C36"/>
<rect width="187" height="90" stroke="white"/>
<path fill-rule="evenodd" clip-rule="evenodd" d="M59.349 24.7485L59.5217 25.9735C54.0087 37.1088 61.0387 36.2023 61.0387 36.2023L61.9267 36.043L62.0623 36.3125C75.1233 34.8425 82.2643 41.5923 82.2643 41.5923C83.214 25.6183 59.349 24.7485 59.349 24.7485Z" fill="#F8B829"/>
<path d="M51.1473 62.3683C50.5923 66.0433 53.614 68.1748 54.095 66.9988C55.427 65.2715 55.8956 65.7738 56.5616 63.1768C56.8048 62.8543 57.0864 62.5622 57.4003 62.307C58.0745 61.6129 58.7241 60.9024 59.349 60.1755C61.1921 58.1045 62.7666 55.8123 64.0356 53.3523C65.4436 50.8684 65.957 47.982 65.491 45.1693C64.9865 43.7464 64.2671 42.4081 63.3573 41.2003C63.0796 40.5679 62.9529 39.8803 62.9873 39.1913C62.9567 38.1605 62.6456 37.1572 62.087 36.288C61.7986 35.9791 61.5791 35.6132 61.4431 35.2142C61.3071 34.8152 61.2575 34.3921 61.2976 33.9728C61.458 33.0418 61.458 32.123 61.5936 31.192C61.6791 29.4523 61.3583 27.7166 60.6563 26.1205C60.6563 26.1205 59.793 24.6015 59.0283 24.9813C57.6668 24.1251 56.0844 23.6798 54.4732 23.6993C52.8619 23.7189 51.2909 24.2025 49.951 25.0915C49.951 25.0915 32.2896 36.3003 48.212 57.8358C47.731 60.6288 49.4453 63.5075 50.7773 65.4185" fill="#005D86"/>
<path d="M59.275 37.7826L56.8823 26.9536C56.8823 26.9536 55.4763 22.7886 51.7763 28.0439L51.1596 27.2354C47.7556 32.0251 43.143 37.7704 44.1666 43.9934C44.3155 45.142 44.7149 46.2446 45.3369 47.2241C45.9589 48.2037 46.7885 49.0367 47.768 49.6651C49.2113 50.6606 50.9587 51.1257 52.7098 50.9804C54.4609 50.8351 56.1063 50.0885 57.3633 48.8689C59.2873 47.2764 60.8536 44.0424 59.275 37.7826Z" fill="white"/>
<path fill-rule="evenodd" clip-rule="evenodd" d="M62.0623 36.3495C62.0623 36.3495 73.4829 34.5855 82.2643 41.6293C82.2643 41.6293 74.0009 30.8615 60.8289 32.8583C60.8413 32.8583 59.8916 35.5043 62.0623 36.3495Z" fill="#F19320"/>
<path d="M82.2643 41.6292C82.4964 38.8507 81.7889 36.0745 80.2539 33.7402C80.1306 33.581 79.1809 35.639 79.1686 35.8227C79.1181 36.6811 79.3287 37.5347 79.7729 38.2727C80.4019 39.4242 81.9313 40.3675 82.2396 41.6047" fill="#E95253"/>
<path d="M39.2333 57.1865C40.8476 57.7967 42.609 57.9119 44.2899 57.5173C46.6456 57.8358 47.8789 58.5708 50.6909 58.8893C54.1319 58.8893 57.5483 58.5218 60.9646 58.2033C62.0746 58.1053 64.5413 57.9705 65.4786 58.8403C66.0213 59.3425 65.8609 60.7023 65.8733 61.4128C63.8345 60.6406 61.6878 60.1861 59.5093 60.0653C57.0426 60.0653 54.4896 60.1755 51.9859 60.151C50.2782 60.156 48.5734 60.0084 46.8923 59.71C45.3259 59.416 43.7843 59.0118 42.2179 58.6933C41.0833 58.4483 39.7019 58.2523 39.2333 57.1865Z" fill="#9B5F48"/>
<path d="M61.2236 59.3914C61.2236 59.7834 60.8783 60.6164 60.5576 60.6164C60.2369 60.6164 59.8916 59.7956 59.8916 59.3914V58.0071C59.8916 57.6151 60.1383 57.2231 60.4589 57.2231C60.6529 57.2526 60.8312 57.3459 60.9654 57.488C61.0996 57.6302 61.1818 57.813 61.1989 58.0071L61.2236 59.3914Z" fill="#969595"/>
<path d="M59.8916 59.5875C59.8916 59.8938 59.6449 60.5308 59.3859 60.5308C59.1269 60.5308 58.8802 59.8938 58.8802 59.5875V58.4973C58.8802 58.191 59.0652 57.8848 59.3242 57.8848C59.4726 57.9076 59.6081 57.9815 59.7073 58.0934C59.8064 58.2053 59.8629 58.3482 59.8669 58.4973L59.8916 59.5875Z" fill="#838383"/>
<path d="M47.657 59.3914C47.657 59.7834 48.0023 60.6164 48.323 60.6164C48.6436 60.6164 48.989 59.7956 48.989 59.3914V58.0071C48.989 57.6151 48.7423 57.2231 48.4216 57.2231C48.2277 57.2526 48.0493 57.3459 47.9152 57.488C47.781 57.6302 47.6987 57.813 47.6816 58.0071L47.657 59.3914Z" fill="#969595"/>
<path d="M48.9889 59.5875C48.9889 59.8938 49.2356 60.5308 49.4946 60.5308C49.7536 60.5308 50.0002 59.8938 50.0002 59.5875V58.4973C50.0002 58.191 49.8152 57.8848 49.5562 57.8848C49.4079 57.9076 49.2724 57.9815 49.1732 58.0934C49.074 58.2053 49.0176 58.3482 49.0136 58.4973L48.9889 59.5875Z" fill="#838383"/>
<path d="M61.7909 32.6129C62.0869 31.9146 62.6296 29.7464 61.1249 26.0101C60.8536 25.4344 60.1753 24.0991 58.7323 24.7851C58.5226 25.1036 61.3346 26.8554 60.7549 33.0294C60.7549 33.0294 60.0273 35.6141 62.0623 36.3369C61.7594 35.7013 61.6035 35.0065 61.6059 34.3034C61.5629 33.7334 61.6256 33.1604 61.7909 32.6129ZM61.6553 32.8579C61.6553 32.8579 61.6553 32.8579 61.6676 32.8579H61.6553Z" fill="#003B55"/>
<path d="M59.3489 30.3343C59.8916 33.2253 58.4362 34.8668 55.5502 34.9036C53.3302 34.9036 50.0989 34.4381 49.7906 31.7431C49.5316 29.4033 51.0239 26.2306 53.4166 25.5201C56.7342 24.5156 58.8309 27.4923 59.3612 30.3343H59.3489Z" fill="#F8B829"/>
<path d="M57.5852 30.1265C57.6991 30.4667 57.7232 30.8303 57.6551 31.1824C57.587 31.5345 57.4291 31.8634 57.1964 32.1375C56.9637 32.4116 56.6641 32.6219 56.3262 32.7481C55.9883 32.8742 55.6235 32.9122 55.2666 32.8582C53.8606 32.8582 51.8996 32.5275 51.7763 30.8247C51.7102 30.0503 51.8932 29.2749 52.2987 28.6102C52.7042 27.9455 53.3115 27.4256 54.0333 27.1252C56.0189 26.574 57.2522 28.3502 57.5482 30.0775L57.5852 30.1265Z" fill="#005D86"/>
<path fill-rule="evenodd" clip-rule="evenodd" d="M56.5 29.7587C56.5 30.2152 56.3174 30.653 55.9924 30.9757C55.6675 31.2985 55.2267 31.4798 54.7671 31.4798C54.3076 31.4798 53.8668 31.2985 53.5418 30.9757C53.2169 30.653 53.0343 30.2152 53.0343 29.7587C53.0343 29.3023 53.2169 28.8645 53.5418 28.5417C53.8668 28.2189 54.3076 28.0376 54.7671 28.0376C55.2267 28.0376 55.6675 28.2189 55.9924 28.5417C56.3174 28.8645 56.5 29.3023 56.5 29.7587Z" fill="#151410"/>
<path fill-rule="evenodd" clip-rule="evenodd" d="M55.0077 28.6684C55.0077 28.9747 54.7363 28.6684 54.7363 28.6684C54.7363 28.6684 55.0077 28.3499 55.0077 28.6684Z" fill="white"/>
<path fill-rule="evenodd" clip-rule="evenodd" d="M54.0332 28.6564C53.8606 28.6564 53.8236 28.8402 53.7989 29.0362C53.7524 29.0537 53.7104 29.0814 53.6761 29.1173C53.6418 29.1531 53.616 29.196 53.6007 29.243C53.5853 29.29 53.5807 29.3399 53.5873 29.3889C53.5938 29.4379 53.6113 29.4848 53.6386 29.5262C53.6386 29.5262 54.4772 28.7422 54.5389 28.7912C54.4689 28.7346 54.3877 28.6934 54.3005 28.6702C54.2134 28.647 54.1223 28.6423 54.0332 28.6564Z" fill="white"/>
<path d="M81.5982 56.917C81.6954 56.9148 81.792 56.9333 81.8814 56.9713C81.9707 57.0094 82.0508 57.0661 82.1162 57.1375L83.5715 58.681C81.3639 61.474 77.1335 62.0988 73.9022 60.9105C72.2959 60.2582 70.9248 59.1402 69.9678 57.7023C69.0108 56.2645 68.5122 54.5735 68.5372 52.85C68.4044 51.1039 68.795 49.3578 69.6598 47.8318C70.5245 46.3058 71.8248 45.0682 73.3965 44.275C75.0186 43.5252 76.8275 43.2682 78.5961 43.5363C80.3648 43.8044 82.0142 44.5856 83.3372 45.7818L82.1039 47.4478C81.4379 48.4033 80.4142 47.3498 79.7235 47.019C78.6989 46.5499 77.5562 46.3963 76.4429 46.578C75.3001 46.8128 74.271 47.4249 73.523 48.3146C72.775 49.2043 72.3523 50.3193 72.3235 51.478C72.1419 52.576 72.2486 53.7019 72.6331 54.747C73.0177 55.7921 73.6672 56.7209 74.5189 57.4438C75.492 58.0913 76.6504 58.4079 77.8201 58.3461C78.9898 58.2842 80.1078 57.8473 81.0062 57.1008C81.1773 56.9755 81.3857 56.9108 81.5982 56.917Z" fill="white"/>
<path d="M88.5666 43.1851V61.2416H85.1749V43.1851H88.5666Z" fill="white"/>
<path d="M94.8072 48.7583V61.2533H91.4525V48.7583H94.8072Z" fill="white"/>
<path d="M95.2142 45.1326C95.2142 47.7419 91.0455 47.7541 91.0455 45.1326C91.0455 42.5111 95.2142 42.5111 95.2142 45.1326Z" fill="white"/>
<path d="M106.807 51.5393C106.277 52.2498 105.71 51.8088 105.118 51.5393C104.388 51.1301 103.534 50.9953 102.713 51.1596C101.011 51.5393 100.517 53.2666 100.468 54.8346C100.419 56.4026 100.752 58.1911 102.306 58.8158C102.702 58.9661 103.124 59.0359 103.548 59.0212C103.972 59.0065 104.388 58.9075 104.772 58.7301C105.377 58.4483 106.24 57.3826 106.869 58.2033L107.831 59.4283C106.962 60.3427 105.846 60.9894 104.617 61.2914C103.388 61.5933 102.098 61.5376 100.9 61.1311C99.719 60.6593 98.7141 59.8362 98.023 58.7747C97.3318 57.7131 96.9883 56.4652 97.0395 55.2021C96.9243 53.9125 97.2195 52.6195 97.8832 51.5053C98.547 50.3911 99.546 49.5118 100.739 48.9913C101.913 48.5417 103.192 48.4355 104.425 48.6851C105.658 48.9348 106.793 49.5299 107.695 50.4001L106.807 51.5393Z" fill="white"/>
<path d="M112.863 43.1851V53.4383H113.418C113.587 53.4463 113.755 53.411 113.906 53.3359C114.057 53.2609 114.187 53.1485 114.282 53.0096L117.057 49.3346C117.184 49.1551 117.355 49.0098 117.553 48.9115C117.751 48.8132 117.97 48.765 118.191 48.7711H121.262L117.673 53.3036C117.408 53.6645 117.073 53.9687 116.687 54.1978C117.05 54.4724 117.352 54.8186 117.575 55.2146L121.46 61.2293H118.438C118.214 61.245 117.99 61.1997 117.79 61.0982C117.59 60.9968 117.422 60.843 117.303 60.6536L114.467 56.0721C114.381 55.9135 114.249 55.7843 114.089 55.7013C113.928 55.6182 113.746 55.5852 113.566 55.6066H112.863V61.2416H109.533V43.1851H112.863Z" fill="white"/>
<path d="M126.171 43.1851V53.4383H126.726C126.895 53.4463 127.063 53.411 127.214 53.3359C127.365 53.2609 127.494 53.1485 127.589 53.0096L130.364 49.3346C130.492 49.1551 130.663 49.0098 130.86 48.9115C131.058 48.8132 131.278 48.765 131.499 48.7711H134.57L130.956 53.3281C130.691 53.689 130.356 53.9932 129.97 54.2223C130.333 54.4969 130.635 54.8431 130.858 55.2391L134.743 61.2538H131.733C131.509 61.2695 131.285 61.2242 131.085 61.1227C130.885 61.0213 130.717 60.8675 130.599 60.6781L127.774 56.0843C127.689 55.9258 127.557 55.7966 127.396 55.7135C127.236 55.6305 127.054 55.5975 126.874 55.6188H126.171V61.2538H122.804V43.1851H126.171Z" fill="white"/>
<path d="M140.983 64.5977C140.897 64.8119 140.744 64.9929 140.546 65.1142C140.349 65.2355 140.117 65.2906 139.886 65.2715H137.419L139.762 60.2L134.718 48.7095H137.666C137.865 48.7004 138.063 48.7534 138.231 48.8609C138.399 48.9685 138.529 49.1254 138.603 49.3097L140.996 55.3C141.168 55.7737 141.316 56.2473 141.44 56.721C141.588 56.2432 141.76 55.7655 141.945 55.2877L144.165 49.322C144.239 49.1427 144.366 48.9896 144.529 48.8825C144.691 48.7755 144.883 48.7195 145.078 48.7217H147.767L140.983 64.5977Z" fill="white"/>
</svg>
